<?xml version="1.0" encoding="UTF-8" standalone="no"?>
<!-- Generator: Adobe Illustrator 16.0.0, SVG Export Plug-In . SVG Version: 6.00 Build 0)  -->

<svg
   xmlns:dc="http://purl.org/dc/elements/1.1/"
   xmlns:cc="http://creativecommons.org/ns#"
   xmlns:rdf="http://www.w3.org/1999/02/22-rdf-syntax-ns#"
   xmlns:svg="http://www.w3.org/2000/svg"
   xmlns="http://www.w3.org/2000/svg"
   xmlns:sodipodi="http://sodipodi.sourceforge.net/DTD/sodipodi-0.dtd"
   xmlns:inkscape="http://www.inkscape.org/namespaces/inkscape"
   version="1.1"
   id="Layer_1"
   x="0px"
   y="0px"
   width="363.49991"
   height="122.42696"
   viewBox="0 0 363.49991 122.42696"
   enable-background="new 0 0 612 792"
   xml:space="preserve"
   inkscape:version="0.48.2 r9819"
   sodipodi:docname="Katy Perry logo.svg"><metadata
   id="metadata13"><rdf:RDF><cc:Work
       rdf:about=""><dc:format>image/svg+xml</dc:format><dc:type
         rdf:resource="http://purl.org/dc/dcmitype/StillImage" /></cc:Work></rdf:RDF></metadata><defs
   id="defs11">
	
		
	
</defs><sodipodi:namedview
   pagecolor="#ffffff"
   bordercolor="#666666"
   borderopacity="1"
   objecttolerance="10"
   gridtolerance="10"
   guidetolerance="10"
   inkscape:pageopacity="0"
   inkscape:pageshadow="2"
   inkscape:window-width="1600"
   inkscape:window-height="837"
   id="namedview9"
   showgrid="false"
   fit-margin-top="0"
   fit-margin-left="0"
   fit-margin-right="0"
   fit-margin-bottom="0"
   inkscape:zoom="1"
   inkscape:cx="180.46846"
   inkscape:cy="73.553883"
   inkscape:window-x="-8"
   inkscape:window-y="-8"
   inkscape:window-maximized="1"
   inkscape:current-layer="Layer_1" />
<path
   style="fill-rule:evenodd;stroke:#000000;stroke-width:0.41460967;stroke-miterlimit:22.92560005"
   inkscape:connector-curvature="0"
   id="path7"
   d="m 32.948229,27.150216 c -0.612317,13.732026 -1.224634,27.464055 -1.84079,41.196075 4.199842,-7.97931 8.630023,-16.80704 15.998942,-23.793986 7.946686,-7.533995 15.580494,-14.837651 19.820642,-21.427257 2.33026,-5.102003 4.38604,-6.697098 5.84485,-0.568169 -0.2457,8.900671 -6.9927,19.786094 -20.694014,32.149522 -6.249857,5.64138 -10.280785,14.79543 -14.115924,21.49444 9.91992,13.55735 19.872472,26.490869 29.792388,40.046309 3.09038,5.25556 -5.84676,7.87758 -9.789391,3.65086 -9.969827,-10.39595 -17.471191,-21.861059 -26.024435,-32.953789 -0.986617,5.2594 -0.479872,17.868529 -0.205385,29.358589 0.735164,6.30936 -2.000108,7.57239 -8.201977,3.79099 -2.312985,-2.43007 -4.065479,-6.0176 -3.817864,-13.74738 0.168915,-7.933249 0.339749,-15.870339 0.508664,-23.801669 -4.938845,3.95223 -12.4728413,4.363 -17.5959573,-3.00208 -3.756441,-4.97915 -3.52610204,-14.14087 3.437805,-16.40971 4.4321003,-1.44346 9.4189333,-0.92135 13.4057123,0.6795 -1.345561,-15.089106 0.02303,-26.928515 4.128822,-35.913644 3.201708,-7.009974 8.835409,-11.921947 9.347912,-0.748601 l 0,0 z M 19.218123,75.342831 c -18.54034634,8.16935 -12.9239213,-13.13506 0,0 l 0,0 z M 201.96309,15.015206 c 6.87369,0.309037 9.4055,7.451457 11.43632,23.223899 2.0097,15.601606 -4.60678,24.200916 -11.53038,25.369886 -2.64889,0.44916 -7.20768,1.07684 -9.2193,-1.04612 -1.06148,-1.12098 -2.43583,-8.02154 5.13655,-7.95436 1.69299,-0.32823 -2.0097,-5.629863 -8.43423,-3.91192 -1.62773,0.73324 -1.05188,-7.66644 -0.93864,-11.691609 0.4722,-17.037386 6.67215,-24.298814 13.54968,-23.989776 l 0,0 z m 38.32452,39.896585 c 3.91384,-20.59996 23.7556,-12.181081 0,0 l 0,0 z m -165.239227,5.52237 c -2.39552,-0.86569 -5.98305,3.44164 -8.01386,9.61664 -2.030824,6.175 -1.735223,11.88356 0.65838,12.74733 2.39744,0.86569 5.98497,-3.43781 8.01579,-9.61281 2.03082,-6.17499 1.7333,-11.88547 -0.66031,-12.75116 l 0,0 z M 191.56906,2.4886192 c 0.49522,3.42053 -0.20923,4.468571 -0.36279,7.7854478 10.05429,-8.8104548 19.83216,-12.9853438 26.27205,-4.8140788 13.33853,20.3830558 11.78566,50.0238128 0.71981,61.8344228 -13.09092,12.51699 -22.25264,10.1637 -29.99394,2.43008 0.38582,10.85279 0.76972,21.70366 1.15937,32.552609 0.55473,7.04069 -2.32258,7.63957 -7.50136,5.53773 -3.14604,-1.65652 -4.51464,-3.52418 -5.04634,-10.451619 -1.10179,-5.65673 -7.7509,-51.171662 4.8256,-90.1660848 3.72381,-7.23839403 8.72216,-8.939061 9.9276,-4.708507 l 0,0 z m 21.09902,81.3882618 c -16.6151,7.32861 -13.71091,18.081589 -7.16545,17.523019 -1.34173,-6.856419 1.90413,-10.785609 13.38076,-10.501529 18.19292,1.99819 40.62599,9.553299 56.29094,14.557409 21.17196,8.53597 39.95416,11.27316 55.94543,6.05023 18.47124,-5.93122 28.04949,-21.148929 30.25883,-44.054199 0.61231,-7.22688 1.22655,-14.45183 1.83887,-21.67871 0.35318,-2.948336 -0.51059,-3.87353 -3.18635,-3.332234 -7.62997,1.704507 -6.09246,5.476303 -7.36508,8.954414 -2.37441,9.80283 -6.11934,14.70521 -10.40939,18.23323 -1.94061,1.17665 -4.01558,3.5952 -2.92915,-2.14407 3.91768,-11.20982 5.71624,-19.544237 2.91187,-22.937894 -3.89272,-5.134634 -9.0907,-2.263078 -11.61675,0.205385 -1.32061,1.393549 -2.62778,2.529887 -3.94647,3.923436 -6.41877,5.622183 -0.46451,-10.376758 -10.97948,-10.825919 -7.49368,-0.180432 -8.31714,4.13458 -8.52445,6.320878 0.0154,2.286112 -0.85609,1.911811 -2.05769,0.02495 -1.48569,-2.430073 -2.82165,-3.495389 -6.17116,-3.366784 -1.71986,0.124767 -2.93874,0.49139 -2.91954,2.236205 0.12477,6.871773 -0.95783,12.722373 -3.2497,17.553733 -3.32647,3.48579 -5.58763,2.6201 -8.33442,1.90413 -2.29571,-0.85033 -2.94066,1.05764 -2.54908,2.83893 0.49715,3.09997 1.60661,4.35916 3.3975,5.57803 1.87534,1.37628 7.21919,-0.0864 6.23066,3.14988 -0.68526,3.49731 -1.93293,9.48804 -2.28036,12.92201 -0.67374,7.65108 1.24575,8.95633 7.17122,2.63929 3.88696,-4.28814 6.39381,-12.61488 8.4016,-22.40044 3.39942,-12.23674 6.8449,-23.838135 11.87204,-15.71677 2.72951,4.51464 5.94658,5.9984 9.87577,3.05198 5.889,-5.04441 5.46671,-1.60853 4.83903,2.10185 -0.57008,5.44175 -3.75835,11.34418 -6.27864,17.1276 -3.36103,9.73181 6.01184,13.29054 12.1542,10.40747 5.91779,-2.08073 7.48793,-7.39963 11.23477,-11.10041 -1.3494,14.05834 -8.04266,24.82284 -22.55784,30.763659 -13.54775,3.37062 -28.79041,2.50877 -46.50922,-4.547269 -13.11779,-5.08281 -26.23942,-10.16754 -39.35721,-15.24651 -11.32306,-3.16907 -20.45983,-3.24201 -27.41606,-0.21498 l 0,0 z m 48.80685,-41.994585 c -0.10365,-4.270863 -2.06921,-7.307495 -7.23647,-8.520613 -13.40571,-1.769769 -26.07434,10.741462 -27.28938,26.344988 -0.51058,10.46506 4.88318,18.08159 14.29636,18.86666 5.32082,0.30328 12.13117,0.87337 21.2353,-12.99686 1.61238,-2.41856 3.70462,-2.44735 3.34184,0.79851 -0.51059,4.91581 -1.01925,9.82202 -1.52984,14.73016 -0.48755,6.09246 1.00006,8.52445 6.83338,2.91954 2.52797,-2.72184 6.62032,-9.55714 7.37084,-25.35069 0.57393,-7.2384 1.19584,-13.457542 6.27481,-19.521209 3.48004,-5.090485 5.71816,2.193976 8.72408,2.040417 3.15372,0.462597 5.68937,-1.347481 7.08676,-6.04831 0.21882,-0.833058 0.79466,-3.629754 -0.93096,-1.873422 -1.68339,1.648842 -3.15948,-0.0058 -3.77947,-2.430073 -0.88297,-2.412798 -2.57212,-5.639459 -5.89667,-5.401443 -5.61643,0.907919 -8.68185,3.5357 -10.32493,8.188541 -0.6891,3.11917 -1.88686,3.247776 -4.42635,0.508665 -1.59317,-1.583579 -3.26313,-1.825434 -5.26132,-2.007786 -2.58555,-0.119008 -2.70072,1.420422 -2.06345,4.019411 1.20352,9.132929 -1.06531,15.632319 -5.27667,20.655619 -4.18641,3.87545 -9.15789,7.30174 -15.67455,9.43621 -4.52232,1.86767 -7.39004,0.40502 -7.79889,-3.52034 7.49945,-2.90995 22.89951,-11.42288 22.32558,-20.837975 l 0,0 z M 89.538613,53.364681 c 0.18043,-3.51459 -0.58545,-5.445591 -3.42629,-3.89272 -2.39936,1.00005 -5.08665,1.95404 -6.9236,3.30536 -10.75682,-4.466656 -16.79361,4.19984 -21.200757,12.99878 -4.5108,9.00048 -5.151909,30.56594 9.739487,29.62539 7.89294,-0.5029 11.3653,-4.75073 12.32504,-11.29235 9.09646,10.39211 16.02966,7.83919 22.028057,-7.6031 2.16326,4.67972 6.09822,9.59361 10.69155,9.16172 6.45909,-0.40117 12.99495,-8.46878 12.87594,-13.78961 0.0461,-4.24399 -1.70451,-7.02149 -5.23637,-8.82581 -4.77953,-1.86766 -4.82559,1.42426 -3.02895,2.6393 2.83124,3.05583 1.78896,7.32093 -1.12098,7.84687 -3.01744,0.40885 -4.0175,-3.15372 -4.03093,-7.24607 0.37238,-4.23247 0.74668,-8.46303 1.12098,-12.69358 4.41866,0.49523 8.66074,0.24761 12.18876,-3.05967 2.27459,-2.299547 4.08275,-3.946469 6.35542,-6.246017 1.79857,-2.190137 3.00976,-0.387736 2.81014,3.038552 -0.43573,5.700885 -7.22688,24.790205 -0.50867,28.370055 4.77761,2.5414 15.82235,-3.2401 18.38103,-10.23856 2.098,8.24037 -0.74668,15.9452 -7.68563,23.20279 -5.21718,4.43977 -25.04166,1.67955 -32.07275,2.66617 -8.68569,1.21887 -28.193457,1.89645 -29.794307,14.797339 -1.18241,9.00816 3.9983,9.79899 5.50126,3.98486 0.46835,-3.57985 1.32828,-5.66058 3.65854,-7.45722 5.85061,-3.359099 13.841437,-4.704669 21.993507,-5.645219 11.33074,-0.39349 12.88169,2.17095 19.65749,3.489639 8.09065,2.13255 13.11203,1.15553 17.30419,-2.136399 19.33886,-18.30233 13.00454,-41.75848 14.3789,-62.523518 0.42996,-4.17105 -0.0979,-6.113573 -3.09038,-4.848629 -4.90813,2.658492 -6.21723,4.62213 -6.89289,8.251884 -1.11138,7.971638 -3.43972,13.060203 -5.50701,16.127553 -5.39185,7.33436 -6.29784,3.13452 -4.87358,-1.04613 2.384,-8.192376 5.35537,-17.056578 0.008,-19.874388 -6.8948,-3.372542 -11.94882,-0.117089 -16.32717,4.32269 -4.85247,6.153882 -10.32685,6.023357 -15.97783,4.13458 -0.008,-5.93698 -0.0787,-11.543808 0.22458,-18.045118 0.0979,-2.096082 0.71405,-2.961772 -1.67379,-2.224688 -3.28617,1.01349 -6.04639,2.481899 -8.9429,3.965664 -0.93479,0.477953 -0.97127,1.213118 -0.99814,2.710319 -0.048,2.66809 -0.0902,5.305468 -0.13436,7.956283 -11.117677,-3.679661 -16.853117,-0.577766 -21.505957,3.886966 -1.7237,1.65268 -3.66622,7.535914 0.32439,5.140392 1.88878,-1.416583 4.25167,-2.55676 9.91417,-1.773608 3.7526,0.719808 7.50712,1.443455 11.261637,2.165183 -0.0921,5.165345 -0.49523,9.994785 -0.58736,15.160125 -0.0672,4.07508 -1.838867,10.07348 -3.896567,13.86831 -3.99445,5.67977 -6.32663,5.34962 -7.51864,0.91176 0.0749,-7.75858 0.14397,-15.51139 0.21307,-23.26613 l 0,0 z"
   stroke-miterlimit="22.9256"
   clip-rule="evenodd" />
</svg>